<?xml version="1.0" encoding="UTF-8" standalone="no"?>
<svg
   xmlns:dc="http://purl.org/dc/elements/1.1/"
   xmlns:cc="http://creativecommons.org/ns#"
   xmlns:rdf="http://www.w3.org/1999/02/22-rdf-syntax-ns#"
   xmlns:svg="http://www.w3.org/2000/svg"
   xmlns="http://www.w3.org/2000/svg"
   width="80"
   height="80"
   viewBox="0 0 80.000001 80.000001"
   id="svg4166"
   version="1.1">
  <defs
     id="defs4168" />
  <metadata
     id="metadata4171">
    <rdf:RDF>
      <cc:Work
         rdf:about="">
        <dc:format>image/svg+xml</dc:format>
        <dc:type
           rdf:resource="http://purl.org/dc/dcmitype/StillImage" />
        <dc:title></dc:title>
      </cc:Work>
    </rdf:RDF>
  </metadata>
  <circle
     r="37.338005"
     cy="40"
     cx="40"
     id="path4639"
     style="opacity:1;fill:#e0c900;fill-opacity:1;fill-rule:nonzero;stroke:none;stroke-width:4.5999999;stroke-linecap:round;stroke-miterlimit:4;stroke-dasharray:none;stroke-dashoffset:0;stroke-opacity:1" />
  <path
     id="path4798"
     d="m 33.022183,64.435131 6.670806,-6.67442 2.78027,0.0036 2.780271,0.0036 0.476226,0.701877 c 1.114175,1.642101 3.338913,3.106998 5.361203,3.530126 6.315773,1.321462 11.884518,-4.247282 10.563056,-10.563055 -0.837152,-4.001065 -4.56862,-7.013987 -8.68674,-7.013987 -2.783592,0 -5.738483,1.52437 -7.237519,3.733693 l -0.476226,0.701878 -5.072651,0.0036 -5.07265,0.0036 L 24.961868,59.009573 14.815509,69.153501 13.886371,68.45633 C -3.6229799,53.964698 3.2951382,10.979398 20.699494,8.9005833 l 1.134829,-0.098992 -0.0036,5.0562037 -0.0036,5.056204 -0.701878,0.476225 c -2.209318,1.499037 -3.733687,4.453927 -3.733687,7.237519 0,4.851214 4.039086,8.890302 8.890301,8.890302 2.783592,0 5.738484,-1.524369 7.23752,-3.733693 l 0.476225,-0.701876 5.62895,0 5.628948,0 0.476226,0.701876 c 1.114176,1.642105 3.338914,3.107002 5.361203,3.53013 6.315774,1.321463 11.884519,-4.247282 10.563056,-10.563055 -0.837151,-4.001065 -4.568621,-7.013986 -8.686739,-7.013986 -2.783592,0 -5.738484,1.524369 -7.23752,3.733693 l -0.476226,0.701877 -5.633728,0.0036 -5.63373,0.0036 -0.241956,-0.4096 c -0.39732,-0.67283 -1.567118,-1.879577 -2.311153,-2.384343 l -0.696296,-0.472383 -0.0036,-5.043154 -0.0036,-9.5431499 C 97.119572,0.26136089 85.507569,91.985584 26.351445,71.109362 l 6.670803,-6.674419 z m 18.894082,-6.796017 c -0.679685,-0.176605 -1.86083,-0.872506 -2.234366,-1.316428 -0.189017,-0.224633 -0.509663,-0.727864 -0.712546,-1.118291 -0.313454,-0.603208 -0.369334,-0.887367 -0.371908,-1.891249 -0.0028,-1.081849 0.03677,-1.255174 0.46924,-2.057192 0.525925,-0.975302 0.961993,-1.39648 2.009341,-1.940729 0.605358,-0.314574 0.883786,-0.368879 1.891249,-0.368879 1.007463,0 1.285889,0.05431 1.891249,0.368879 1.047348,0.544249 1.483418,0.965427 2.009341,1.940729 0.43248,0.802018 0.472015,0.975343 0.46924,2.057192 -0.0026,1.003882 -0.05846,1.288041 -0.371909,1.891249 -0.54159,1.042231 -0.966026,1.484358 -1.905841,1.985274 -0.898049,0.478655 -2.273647,0.675358 -3.14309,0.449445 z M 25.230878,30.953727 c -0.679685,-0.176606 -1.860831,-0.872506 -2.234366,-1.316428 -0.189018,-0.224635 -0.509664,-0.727865 -0.712546,-1.118291 -0.313454,-0.603209 -0.369334,-0.887368 -0.371908,-1.891249 -0.0028,-1.08185 0.03676,-1.255174 0.46924,-2.057192 0.525923,-0.975303 0.961991,-1.396481 2.00934,-1.94073 0.60536,-0.314573 0.883786,-0.368878 1.891249,-0.368878 1.007464,0 1.28589,0.05431 1.89125,0.368878 1.047349,0.544249 1.483417,0.965427 2.00934,1.94073 0.432482,0.802018 0.472015,0.975342 0.46924,2.057192 -0.0026,1.00989 -0.05769,1.286632 -0.379594,1.906416 -0.776479,1.495027 -2.097571,2.380992 -3.691101,2.475371 -0.508516,0.03011 -1.11608,0.0049 -1.350144,-0.05582 z m 26.685387,0 c -0.679685,-0.176606 -1.86083,-0.872506 -2.234366,-1.316428 -0.189017,-0.224635 -0.509663,-0.727865 -0.712546,-1.118291 -0.313454,-0.603209 -0.369334,-0.887368 -0.371908,-1.891249 -0.0028,-1.08185 0.03677,-1.255174 0.46924,-2.057192 0.525925,-0.975303 0.961993,-1.396481 2.009341,-1.94073 0.605358,-0.314573 0.883786,-0.368878 1.891249,-0.368878 1.007463,0 1.285889,0.05431 1.891249,0.368878 1.047348,0.544249 1.483418,0.965427 2.009341,1.94073 0.43248,0.802018 0.472015,0.975342 0.46924,2.057192 -0.0026,1.003881 -0.05846,1.28804 -0.371909,1.891249 -0.54159,1.042231 -0.966026,1.484357 -1.905841,1.985273 -0.898049,0.478656 -2.273647,0.675359 -3.14309,0.449446 z"
     style="fill:#0e6f13;fill-opacity:1" />
  <path
     id="path4295"
     d="M 40 0 A 40 40 0 0 0 0 40 A 40 40 0 0 0 40 80 A 40 40 0 0 0 80 40 A 40 40 0 0 0 40 0 z M 40 6.1171875 A 33.882702 33.882702 0 0 1 73.882812 40 A 33.882702 33.882702 0 0 1 40 73.882812 A 33.882702 33.882702 0 0 1 6.1171875 40 A 33.882702 33.882702 0 0 1 40 6.1171875 z "
     style="opacity:1;fill:#004c00;fill-opacity:1;fill-rule:nonzero;stroke:none;stroke-width:4.5999999;stroke-linecap:round;stroke-miterlimit:4;stroke-dasharray:none;stroke-dashoffset:0;stroke-opacity:1" />
</svg>
