<?xml version="1.0" encoding="UTF-8" standalone="no"?>
<svg
   xmlns:dc="http://purl.org/dc/elements/1.1/"
   xmlns:cc="http://creativecommons.org/ns#"
   xmlns:rdf="http://www.w3.org/1999/02/22-rdf-syntax-ns#"
   xmlns:svg="http://www.w3.org/2000/svg"
   xmlns="http://www.w3.org/2000/svg"
   version="1.1"
   id="svg4166"
   viewBox="0 0 80.000001 80.000001"
   height="80"
   width="80">
  <defs
     id="defs4168" />
  <metadata
     id="metadata4171">
    <rdf:RDF>
      <cc:Work
         rdf:about="">
        <dc:format>image/svg+xml</dc:format>
        <dc:type
           rdf:resource="http://purl.org/dc/dcmitype/StillImage" />
        <dc:title></dc:title>
      </cc:Work>
    </rdf:RDF>
  </metadata>
  <g
     transform="translate(0,-972.36216)"
     id="layer1">
    <path
       id="path4725"
       d="m 36.880623,1052.3145 c -0.262324,-0.036 -1.156611,-0.1429 -1.987304,-0.2366 C 21.959315,1050.6199 9.8669472,1041.9952 4.0608247,1030.0871 1.1491608,1024.1154 0,1019.0941 0,1012.343 c 0,-6.7511 1.1491608,-11.7725 4.0608247,-17.74416 3.7763381,-7.74511 10.4316973,-14.40002 18.1783183,-18.17706 5.969103,-2.91038 10.991617,-4.05962 17.741674,-4.05962 6.751072,0 11.772431,1.14916 17.74414,4.06082 11.933441,5.81847 20.157678,17.33016 22.027518,30.83252 0.274987,1.9857 0.274305,8.1967 -0.0011,10.175 -0.890134,6.3936 -3.051587,12.128 -6.490853,17.2203 -6.428565,9.5184 -16.200497,15.6663 -27.616721,17.3747 -1.520869,0.2276 -7.731941,0.4324 -8.763162,0.289 z m 5.683689,-6.2099 0.596191,-0.099 0,-3.5614 c 0,-4.0416 -0.0969,-4.5216 -0.987972,-4.8939 -0.701291,-0.293 -1.317377,-0.149 -1.795996,0.4198 l -0.395718,0.4703 0,3.8829 0,3.8829 0.993652,-0 c 0.546508,-0 1.261937,-0.046 1.589843,-0.1003 z m -5.763181,-2.9765 0,-2.9195 -0.409685,-0.4097 c -0.987182,-0.9872 -2.480728,-0.4011 -2.691404,1.0561 -0.05261,0.3639 -0.07393,1.5917 -0.04738,2.7284 l 0.04828,2.0668 1.11289,0.1799 c 0.612089,0.099 1.309633,0.1883 1.550097,0.1987 l 0.437207,0.019 0,-2.9196 z m 11.188779,2.1222 c 0.688744,-0.1735 1.278973,-0.3155 1.31162,-0.3155 0.03265,0 0.05936,-1.0319 0.05936,-2.2931 0,-2.2113 -0.01412,-2.3099 -0.395718,-2.7634 -0.478619,-0.5688 -1.094705,-0.7128 -1.795996,-0.4198 -0.828665,0.3463 -0.987972,0.9465 -0.987972,3.7223 0,2.7572 -0.166194,2.5671 1.808706,2.0695 z m -17.389167,-4.1312 0,-3.8156 -2.853892,0 c -3.199675,0 -4.14016,-0.1424 -5.430858,-0.8225 -1.19156,-0.6279 -1.881875,-1.3723 -2.775608,-2.9931 -1.471883,-2.6694 -2.294965,-3.7904 -3.842034,-5.2328 -0.874559,-0.8154 -1.466905,-1.4848 -1.404018,-1.5865 0.172661,-0.2794 1.554961,-0.2049 2.656759,0.1432 1.30169,0.4112 1.912446,0.89 3.356104,2.6311 0.648372,0.782 1.48616,1.6982 1.861753,2.0362 1.479433,1.3311 3.239416,1.7172 6.364998,1.3961 2.336216,-0.2399 3.060748,-0.523 4.126503,-1.6123 1.220608,-1.2476 2.725299,-2.9024 2.67341,-2.9402 -0.02369,-0.017 -0.722738,-0.158 -1.553431,-0.3128 -3.855907,-0.7185 -7.407112,-2.3103 -9.888432,-4.4325 -0.98284,-0.8406 -2.337821,-2.5299 -3.010274,-3.7531 -0.519922,-0.9458 -0.523569,-0.9485 -1.402785,-1.0607 -0.484831,-0.062 -2.312368,-0.1145 -4.061196,-0.117 -2.765473,-0 -3.338649,0.039 -4.399958,0.334 -1.1292579,0.3134 -3.2741119,1.1396 -3.7560442,1.4469 -0.1622562,0.1035 -0.05043,0.607 0.5192857,2.3383 3.3045905,10.0424 11.0403375,17.976 20.9913985,21.5282 0.961855,0.3434 1.766713,0.628 1.788573,0.6325 0.02186,0 0.03975,-1.7088 0.03975,-3.8074 z m 24.348751,1.5775 c 8.10118,-4.0714 14.341713,-11.2197 17.130464,-19.6222 0.704978,-2.1241 1.139816,-3.8694 0.987507,-3.9635 -0.235365,-0.1455 -2.673876,-0.5814 -4.030323,-0.7205 -1.099609,-0.1128 -5.440974,-0.01 -6.264589,0.1486 -0.01239,0 -0.06368,0.1653 -0.113997,0.3621 -0.05031,0.1967 -0.510436,1.0016 -1.022488,1.7886 -1.7108,2.6293 -4.457683,4.7411 -7.944337,6.1076 -1.103696,0.4326 -4.193642,1.2448 -5.245671,1.3788 l -0.835339,0.1064 1.073815,1.1323 c 1.586035,1.6722 2.748972,3.7911 3.41352,6.2194 0.239014,0.8733 0.324031,1.8705 0.395006,4.6332 l 0.09044,3.5203 0.574728,-0.2399 c 0.316101,-0.1319 1.122169,-0.515 1.791264,-0.8512 z M 7.7426419,1019.3994 c 0.8578888,-0.4437 3.0439101,-1.1473 4.1780131,-1.3447 0.725134,-0.1263 2.267541,-0.1645 4.614782,-0.1143 l 3.525612,0.075 -0.165344,-0.4381 c -0.193046,-0.5114 -0.229493,-0.5188 -3.921517,-0.7984 -2.780788,-0.2105 -5.440866,-0.1214 -7.5517547,0.253 -2.1024465,0.3729 -1.9664545,0.2859 -1.8093049,1.1573 0.2980288,1.6527 0.2898618,1.644 1.1295135,1.2098 z m 65.6598171,-1.499 c 0.03907,-0.2661 0.02658,-0.5114 -0.02776,-0.545 -0.05433,-0.034 -0.739852,-0.1812 -1.523379,-0.328 -1.649413,-0.309 -4.25636,-0.3404 -6.528584,-0.078 -1.859476,0.2143 -2.130215,0.282 -2.130215,0.5325 0,0.1393 0.92361,0.1923 3.537401,0.2031 2.959787,0.012 3.758061,0.067 4.888767,0.3352 1.792416,0.4254 1.702927,0.4314 1.783767,-0.1194 z m -65.5364707,-1.4927 c 3.2090727,-0.6131 5.5281287,-0.6441 10.6300577,-0.1421 l 1.011509,0.1 -0.100047,-0.461 c -0.05503,-0.2536 -0.163098,-1.1407 -0.240159,-1.9714 -0.358634,-3.8659 0.704835,-7.5095 3.182114,-10.9025 l 0.589224,-0.807 -0.36982,-1.5298 c -0.87649,-3.62554 -0.859189,-7.07995 0.04437,-8.85949 0.526896,-1.03771 0.677003,-1.08009 2.631219,-0.74286 2.479907,0.42796 4.83531,1.61673 6.847953,3.45618 l 0.905,0.82711 1.146684,-0.33671 c 4.942561,-1.4514 10.201286,-1.41432 15.137302,0.10673 l 0.953906,0.29394 0.995531,-0.92409 c 1.916142,-1.77866 4.339836,-2.9943 6.82501,-3.42316 1.954216,-0.33723 2.104322,-0.29485 2.631219,0.74286 0.907368,1.78704 0.915566,5.11455 0.02199,8.92529 l -0.402277,1.7155 0.712407,0.9992 c 2.465802,3.4586 3.459674,7.7086 2.743249,11.7307 -0.116815,0.6558 -0.203403,1.204 -0.19242,1.2182 0.01098,0.014 0.80694,-0.081 1.768795,-0.2117 2.028915,-0.2754 5.441488,-0.1955 7.074802,0.1657 0.568369,0.1257 1.089187,0.176 1.157375,0.1117 0.233314,-0.22 0.322365,-5.2773 0.128038,-7.2717 -1.695412,-17.40003 -16.326303,-30.73757 -33.71821,-30.73757 -17.390422,0 -32.0229438,13.33902 -33.7182124,30.73757 -0.1811149,1.8588 -0.1135498,6.9254 0.096894,7.2659 0.1197836,0.1938 0.091406,0.1953 1.5064892,-0.075 z"
       style="fill:#333333;fill-opacity:1" />
  </g>
</svg>
