<?xml version="1.0" encoding="UTF-8" standalone="no"?>
<svg
   xmlns:dc="http://purl.org/dc/elements/1.1/"
   xmlns:cc="http://creativecommons.org/ns#"
   xmlns:rdf="http://www.w3.org/1999/02/22-rdf-syntax-ns#"
   xmlns:svg="http://www.w3.org/2000/svg"
   xmlns="http://www.w3.org/2000/svg"
   version="1.1"
   id="svg2"
   viewBox="0 0 80.000253 86.819734"
   height="86.819733"
   width="80.000252">
  <defs
     id="defs4" />
  <metadata
     id="metadata7">
    <rdf:RDF>
      <cc:Work
         rdf:about="">
        <dc:format>image/svg+xml</dc:format>
        <dc:type
           rdf:resource="http://purl.org/dc/dcmitype/StillImage" />
        <dc:title></dc:title>
      </cc:Work>
    </rdf:RDF>
  </metadata>
  <g
     transform="translate(-7.4517396e-7,-965.42328)"
     id="layer1">
    <g
       transform="translate(502.71358,171.42857)"
       id="g8147" />
    <g
       transform="translate(591.94939,176.7767)"
       id="g8131" />
    <g
       transform="matrix(0.20751416,0,0,0.20751416,-271.08096,695.05583)"
       id="g8524">
      <path
         id="rect8221-8"
         transform="matrix(4.8189483,0,0,4.8189483,1306.3251,1336.3248)"
         d="M 49.054688,38.304688 38.466797,49.9375 c 0,0 -6.916643,20.759138 14.716797,27.701172 A 40.000001,40.000001 0 0 0 79.880859,41.113281 l 0,-2.808593 -30.826171,0 z"
         style="opacity:1;fill:#f1f1f1;fill-opacity:1;fill-rule:nonzero;stroke:#f1f1f1;stroke-width:0.23878922;stroke-linecap:round;stroke-miterlimit:4;stroke-dasharray:0.95515688, 0.23878922;stroke-dashoffset:0;stroke-opacity:1" />
      <path
         id="path8200-4"
         transform="matrix(4.8189483,0,0,4.8189483,1306.3251,1336.3248)"
         d="M 51.990234,1.8105469 C 35.95913,13.0323 49.285376,13.082818 37.757812,29.367188 l 34.316407,34.316406 a 40.000001,40.000001 0 0 0 7.80664,-22.570313 l 0,-2.83789 A 40.000001,40.000001 0 0 0 51.990234,1.8105469 Z"
         style="fill:#c0c0c0;fill-opacity:1;fill-rule:evenodd;stroke:none;stroke-width:1px;stroke-linecap:butt;stroke-linejoin:miter;stroke-opacity:1" />
      <path
         id="path8198-0"
         transform="matrix(4.8189483,0,0,4.8189483,1306.3251,1336.3248)"
         d="M 35.597656,43.798828 13.802734,70.189453 a 40.000001,40.000001 0 0 0 24.962891,9.691406 l 2.837891,0 A 40.000001,40.000001 0 0 0 63.794922,71.996094 L 35.597656,43.798828 Z"
         style="fill:#0068f0;fill-opacity:1;fill-rule:evenodd;stroke:none;stroke-width:1px;stroke-linecap:butt;stroke-linejoin:miter;stroke-opacity:1" />
      <path
         id="path8196-9"
         transform="matrix(4.8189483,0,0,4.8189483,1306.3251,1336.3248)"
         d="M 62.160156,6.703125 6.6679688,62.09375 A 40.000001,40.000001 0 0 0 16.273438,72.130859 L 72.130859,16.275391 A 40.000001,40.000001 0 0 0 62.160156,6.703125 Z"
         style="fill:#ffd000;fill-opacity:1;fill-rule:evenodd;stroke:none;stroke-width:1px;stroke-linecap:butt;stroke-linejoin:miter;stroke-opacity:1" />
      <path
         id="path8194-8"
         transform="matrix(4.8189483,0,0,4.8189483,1306.3251,1336.3248)"
         d="M 38.253906,0 A 40.000001,40.000001 0 0 0 0,38.738281 l 0,2.888672 A 40.000001,40.000001 0 0 0 7.8789062,63.787109 L 63.783203,7.8828125 A 40.000001,40.000001 0 0 0 41.140625,0 L 38.253906,0 Z M 22.734375,10.09375 c 2.253438,0.01121 6.361458,0.14868 8.984375,0.07813 l -1.857422,1.861328 c -0.743793,-0.04837 -1.589844,-0.03125 -1.589844,-0.03125 0,0 -0.157002,0.03644 -0.0625,0.111328 0.30764,0.243684 0.822796,0.739381 1.302735,1.486328 0.618226,0.899865 1.062645,2.251153 1.0625,3.673829 -0.02438,1.988919 -1.016151,3.431624 -2.371094,4.541015 -0.884425,0.846782 -2.41707,1.579043 -2.185547,2.980469 0.23088,1.463099 5.216672,3.971742 5.720703,6.769531 0.181264,1.132633 0.223071,2.480916 -0.167969,3.546875 -0.565144,1.619129 -1.781134,2.74257 -3.05664,3.822266 -2.243477,1.327779 -4.894384,2.061 -7.511719,1.976562 -1.810167,0.01619 -3.779611,-0.402648 -5.408203,-1.27539 -2.346031,-1.102461 -3.757968,-3.409201 -2.919922,-6.466797 1.613589,-3.910459 6.364152,-4.897989 10.25,-5.197266 -1.072184,-1.010677 -0.750352,-2.431042 -0.765625,-3.751953 -2.460101,-0.02513 -3.561344,-0.245128 -4.787109,-1.246094 -1.78568,-1.474014 -2.921932,-3.190617 -2.738282,-5.939453 0.223908,-3.750818 3.284476,-6.216398 6.589844,-6.896484 0.215524,-0.03677 0.76058,-0.0467 1.511719,-0.04297 z m -0.814453,1.539062 c -0.835473,-0.0081 -1.749354,0.332612 -2.75586,1.144532 -0.922317,0.854834 -0.828124,2.482951 -0.828124,3.710937 0.09589,2.790568 1.863171,6.350209 4.90039,6.298828 1.911309,0 2.927924,-1.004954 3.66211,-2.980468 0.314549,-1.743929 -0.310787,-3.54774 -0.986329,-5.167969 -1.093205,-1.704023 -2.397233,-2.990337 -3.992187,-3.00586 z m 1.810547,17.861329 c -2.038267,-0.0052 -4.959045,0.720784 -6.388672,2.101562 -1.286028,1.047698 -1.261609,2.881542 -0.6875,4.310547 1.205076,2.260306 3.982553,3.094403 6.394531,3.101562 1.984209,0.0046 3.608365,-0.499912 5.160156,-2.123046 1.928492,-3.517365 -0.865861,-5.318474 -3.666015,-7.34375 -0.248166,-0.03086 -0.521316,-0.04613 -0.8125,-0.04687 z"
         style="fill:#009649;fill-opacity:1;fill-rule:evenodd;stroke:none;stroke-width:1px;stroke-linecap:butt;stroke-linejoin:miter;stroke-opacity:1" />
      <g
         id="g8515"
         transform="translate(836.48948,-59.186993)">
        <path
           style="fill:#db4e42"
           d="m 761.00967,1362.0739 c -7.02404,0.015 -14.04352,0.9012 -20.8164,2.6543 -31.80032,7.4506 -56.51632,35.8705 -61.73243,67.8379 -3.47487,16.2259 0.36902,32.9379 6.23633,48.1191 18.28183,42.1705 50.04181,77.6618 62.88282,122.3458 4.7577,14.4633 6.7705,30.8034 9.99804,45.4573 1.25465,4.1852 7.59576,4.5663 8.77735,0.1208 3.22754,-14.6539 4.6173,-30.1012 9.375,-44.5645 12.84101,-44.6839 44.59904,-80.1752 62.88084,-122.3457 5.8673,-15.1813 9.7132,-31.8933 6.2383,-48.1191 -2.6883,-16.4755 -10.5661,-32.001 -21.9141,-44.2071 -0.1138,-0.1249 -0.231,-0.2469 -0.3457,-0.3711 -0.3057,-0.325 -0.6092,-0.6524 -0.9199,-0.9726 -4.7466,-4.9669 -10.1414,-9.3123 -15.9863,-12.8867 -0.1361,-0.084 -0.2717,-0.1687 -0.4082,-0.252 -0.1279,-0.077 -0.2526,-0.1599 -0.3809,-0.2363 -12.953,-8.4328 -28.43185,-12.6131 -43.88475,-12.5801 z"
           id="path8182" />
        <circle
           r="27.678572"
           cy="1447.0896"
           cx="760.97943"
           id="path8495"
           style="opacity:1;fill:#690500;fill-opacity:0.84406499;fill-rule:nonzero;stroke:none;stroke-width:1;stroke-linecap:round;stroke-miterlimit:4;stroke-dasharray:4, 1;stroke-dashoffset:0;stroke-opacity:1" />
      </g>
    </g>
  </g>
</svg>
