<?xml version="1.0" encoding="UTF-8" standalone="no"?>
<svg
   xmlns:dc="http://purl.org/dc/elements/1.1/"
   xmlns:cc="http://creativecommons.org/ns#"
   xmlns:rdf="http://www.w3.org/1999/02/22-rdf-syntax-ns#"
   xmlns:svg="http://www.w3.org/2000/svg"
   xmlns="http://www.w3.org/2000/svg"
   version="1.1"
   id="svg2"
   viewBox="0 0 80.000001 80.000001"
   height="80"
   width="80">
  <defs
     id="defs4" />
  <metadata
     id="metadata7">
    <rdf:RDF>
      <cc:Work
         rdf:about="">
        <dc:format>image/svg+xml</dc:format>
        <dc:type
           rdf:resource="http://purl.org/dc/dcmitype/StillImage" />
        <dc:title></dc:title>
      </cc:Work>
    </rdf:RDF>
  </metadata>
  <g
     transform="translate(0,-972.36216)"
     id="layer1">
    <path
       id="path4147"
       d="m 35.119611,1052.1485 c -9.489138,-1.3098 -17.596697,-5.3898 -24.01229,-12.0839 -5.3489536,-5.581 -8.7443847,-11.9973 -10.36618247,-19.5884 -0.98971417,-4.6326 -0.98798923,-11.6416 0.004014,-16.2878 C 4.0978683,988.48541 16.128517,976.46126 31.847369,973.10305 c 4.623845,-0.98785 11.643045,-0.98785 16.266888,0 15.718852,3.35821 27.749504,15.38236 31.10222,31.08535 0.556496,2.6065 0.703094,4.3067 0.703094,8.1543 0,3.8477 -0.146598,5.5478 -0.703094,8.1543 -3.353923,15.7087 -15.545083,27.8808 -31.10222,31.0536 -3.761953,0.7673 -9.766039,1.0435 -12.994637,0.5979 z m -4.145647,-10.0375 c 2.287169,-0.7663 4.47893,-1.971 7.110568,-3.9083 l 1.896273,-1.3959 1.896273,1.3959 c 9.04815,6.6609 16.484318,5.992 19.019378,-1.7108 0.430265,-1.3074 0.56769,-2.7119 0.56769,-5.8021 0,-2.2424 -0.0695,-4.5401 -0.154448,-5.1058 -0.153388,-1.0216 -0.137221,-1.0362 2.35219,-2.117 9.805405,-4.257 12.923202,-11.0576 7.808781,-17.0326 -1.409555,-1.6468 -5.130633,-4.1289 -7.877568,-5.2547 l -2.159863,-0.8852 0.01546,-5.18796 c 0.01248,-4.19258 -0.09348,-5.51902 -0.552244,-6.91296 -2.53506,-7.70286 -9.971228,-8.37176 -19.019378,-1.71089 l -1.896273,1.39594 -1.896273,-1.39594 c -9.048151,-6.66087 -16.484321,-5.99197 -19.019377,1.71089 -0.458762,1.39394 -0.564727,2.72038 -0.552235,6.91296 l 0.01546,5.18796 -2.159863,0.8852 c -2.746939,1.1258 -6.4680132,3.6079 -7.8775681,5.2547 -3.2249785,3.7677 -3.2249785,8.049 0,11.8167 1.4095549,1.6467 5.1306291,4.1288 7.8775681,5.2546 l 2.159863,0.8852 -0.01546,5.188 c -0.01248,4.1926 0.09347,5.519 0.552235,6.913 1.763149,5.3573 6.300201,7.4981 11.908809,5.6191 z m -6.35334,-3.1655 c -2.464321,-1.6808 -3.302052,-4.3298 -3.079274,-9.7367 0.07647,-1.856 0.200265,-3.4358 0.275103,-3.5106 0.07483,-0.075 0.981688,0.065 2.015231,0.3116 1.03354,0.2462 3.149348,0.6549 4.701794,0.9082 2.575235,0.4201 2.891343,0.5502 3.606688,1.4842 0.431235,0.563 1.807267,2.1829 3.057851,3.5997 1.250582,1.4169 2.273785,2.6335 2.273785,2.7035 0,0.07 -0.839943,0.7167 -1.866536,1.4368 -4.535327,3.1813 -8.825268,4.2761 -10.984642,2.8033 z m 25.553007,0.2429 c -0.689976,-0.2188 -1.889593,-0.7218 -2.665816,-1.1179 -1.439535,-0.7345 -5.018007,-3.1342 -5.018007,-3.3651 0,-0.07 1.023203,-1.2866 2.273784,-2.7035 1.250582,-1.4168 2.626613,-3.0367 3.057848,-3.5997 0.715345,-0.934 1.031455,-1.0641 3.606693,-1.4842 1.552445,-0.2533 3.668253,-0.662 4.701793,-0.9082 1.033544,-0.2462 1.940398,-0.3865 2.015232,-0.3116 0.344702,0.3447 0.37954,7.0517 0.045,8.6632 -0.899406,4.3324 -3.892512,6.1346 -8.016526,4.827 z m -12.355907,-8.9326 c -1.052728,-1.1874 -1.91405,-2.2459 -1.91405,-2.3522 0,-0.1063 1.834709,-0.1933 4.077131,-0.1933 2.242422,0 4.07713,0.087 4.07713,0.1933 0,0.3061 -3.800472,4.5111 -4.07713,4.5111 -0.136967,0 -1.11035,-0.9715 -2.163081,-2.1589 z m -4.128537,-5.9006 c -0.624193,-0.097 -1.226284,-0.803 -2.701969,-3.1677 -1.04434,-1.6735 -2.55432,-4.3482 -3.355514,-5.9438 l -1.456711,-2.901 1.456711,-2.901 c 0.801194,-1.5956 2.306081,-4.2621 3.344192,-5.9256 2.230569,-3.57443 1.762646,-3.3979 9.004909,-3.3979 7.24226,0 6.774337,-0.17653 9.004907,3.3979 1.038113,1.6635 2.544628,4.3333 3.347807,5.9328 l 1.460328,2.9082 -1.413843,2.8199 c -0.777612,1.5509 -2.284124,4.2142 -3.347807,5.9184 -1.759846,2.8196 -2.035532,3.1154 -3.062081,3.2852 -1.214593,0.2009 -10.955488,0.1808 -12.280929,-0.025 z m 8.486996,-9.1722 c 1.57948,-1.1039 1.802236,-3.8777 0.432922,-5.3907 -0.806475,-0.8912 -2.484051,-1.2457 -3.802906,-0.8036 -3.155278,1.0575 -3.189699,5.6225 -0.05052,6.7002 1.239473,0.4256 2.315443,0.2664 3.420506,-0.5059 z m -16.935772,7.9211 c -1.121211,-0.2606 -2.164919,-0.5933 -2.319348,-0.7392 -0.292142,-0.2762 0.156847,-2.2131 1.075425,-4.6394 l 0.514967,-1.3602 1.664077,2.9283 c 0.915247,1.6106 1.871714,3.2458 2.12549,3.634 0.43416,0.664 0.41761,0.704 -0.280319,0.678 -0.407951,-0.015 -1.659081,-0.2409 -2.780292,-0.5015 z m 26.420178,-0.1765 c 0.253776,-0.3882 1.210246,-2.0234 2.125489,-3.634 l 1.664078,-2.9283 0.514966,1.3602 c 0.917957,2.4246 1.367592,4.3633 1.075425,4.6368 -0.299738,0.2807 -4.443683,1.2709 -5.318366,1.2709 -0.470002,0 -0.476243,-0.072 -0.06159,-0.7056 z m -35.230873,-2.8283 c -9.6990537,-4.8677 -9.5919412,-10.8823 0.278892,-15.6601 1.433939,-0.694 2.649931,-1.2108 2.702203,-1.1484 0.05227,0.062 0.547179,1.4981 1.099793,3.1903 0.552614,1.6922 1.270848,3.6975 1.596074,4.4562 0.590328,1.3772 0.590096,1.3825 -0.138675,3.1958 -0.401501,0.999 -1.128732,3.0512 -1.616068,4.5605 -0.48734,1.5093 -0.969112,2.7442 -1.070611,2.7442 -0.101498,0 -1.384722,-0.6023 -2.851608,-1.3385 z m 42.576801,-2.9759 c -0.834212,-2.3706 -1.517859,-4.522 -1.51921,-4.7807 -0.0022,-0.3991 2.822961,-8.7215 3.072691,-9.0519 0.04721,-0.062 1.259065,0.4544 2.693004,1.1484 9.870834,4.7778 9.977946,10.7924 0.278892,15.6601 -1.466886,0.7362 -2.743915,1.3376 -2.837846,1.3364 -0.09393,0 -0.853315,-1.9417 -1.687531,-4.3123 z m -35.467148,-11.5335 c -0.478081,-1.4691 -0.79721,-2.8588 -0.709179,-3.0883 0.148938,-0.3881 5.408094,-1.7061 5.66867,-1.4206 0.09926,0.1088 -3.597218,6.687 -3.96331,7.0531 -0.06982,0.07 -0.518096,-1.0751 -0.996181,-2.5442 z m 29.85691,-0.8478 c -1.12594,-1.9432 -1.99531,-3.5907 -1.931935,-3.6611 0.261773,-0.2908 5.518468,1.0334 5.669999,1.4283 0.127175,0.3314 -1.291146,5.3158 -1.617018,5.6827 -0.04064,0.046 -0.995108,-1.5068 -2.121046,-3.4499 z m -31.715353,-6.73098 c -0.309753,-1.87448 -0.237245,-6.18187 0.133137,-7.90891 0.408873,-1.9065 1.349401,-3.3684 2.806561,-4.36225 2.159374,-1.47285 6.449315,-0.37804 10.984642,2.80331 1.026593,0.72012 1.866536,1.36665 1.866536,1.43675 0,0.0701 -1.026371,1.28451 -2.280826,2.69878 -1.254454,1.41423 -2.601039,3.02473 -2.992413,3.57884 -0.509588,0.72149 -1.041759,1.06034 -1.874709,1.1936 -1.96165,0.31387 -7.641428,1.44405 -8.055336,1.6029 -0.251863,0.0966 -0.460449,-0.2736 -0.587592,-1.04302 z m 34.294775,0.65654 c -0.948717,-0.23838 -2.995123,-0.64208 -4.547568,-0.89706 -2.567332,-0.42173 -2.893546,-0.55574 -3.606693,-1.48188 -0.431235,-0.56004 -1.807266,-2.1754 -3.057848,-3.58966 -1.250581,-1.41426 -2.273784,-2.6333 -2.273784,-2.70894 0,-0.0756 0.839942,-0.72673 1.866536,-1.44685 4.535324,-3.18135 8.825268,-4.27616 10.984642,-2.80331 2.27582,1.55223 3.146434,3.91056 3.140265,8.50634 -0.0037,2.74337 -0.267898,4.94637 -0.586426,4.88948 -0.106802,-0.0191 -0.970407,-0.22973 -1.919124,-0.46812 z m -20.063603,-1.92782 c 0.0046,-0.12934 0.921987,-1.22311 2.038566,-2.43057 l 2.030141,-2.19537 2.030141,2.19537 c 1.116579,1.20746 2.033933,2.30123 2.038565,2.43057 0.0046,0.12937 -1.826284,0.23522 -4.068706,0.23522 -2.242422,0 -4.073339,-0.10585 -4.068707,-0.23522 z"
       style="fill:#4169e1;fill-opacity:1" />
  </g>
</svg>
