<?xml version="1.0" encoding="UTF-8" standalone="no"?>
<svg
   xmlns:dc="http://purl.org/dc/elements/1.1/"
   xmlns:cc="http://creativecommons.org/ns#"
   xmlns:rdf="http://www.w3.org/1999/02/22-rdf-syntax-ns#"
   xmlns:svg="http://www.w3.org/2000/svg"
   xmlns="http://www.w3.org/2000/svg"
   version="1.1"
   id="svg2"
   viewBox="0 0 80.000001 80.000001"
   height="80"
   width="80">
  <defs
     id="defs4" />
  <metadata
     id="metadata7">
    <rdf:RDF>
      <cc:Work
         rdf:about="">
        <dc:format>image/svg+xml</dc:format>
        <dc:type
           rdf:resource="http://purl.org/dc/dcmitype/StillImage" />
        <dc:title></dc:title>
      </cc:Work>
    </rdf:RDF>
  </metadata>
  <g
     transform="translate(-151.71663,-703.76265)"
     id="layer1">
    <path
       id="path4147"
       d="m 188.20099,783.70423 c -0.35486,-0.0506 -1.41945,-0.1948 -2.36575,-0.32049 -13.95068,-1.85289 -26.5158,-12.03231 -31.57122,-25.57691 -9.01179,-24.14459 6.83984,-50.29335 32.53903,-53.67619 4.69381,-0.61785 10.18792,-0.25914 15.05481,0.98294 13.90958,3.54986 25.12039,14.85732 28.68611,28.93341 1.24767,4.92534 1.5285,11.40269 0.70377,16.23243 -2.9048,17.01098 -15.90304,30.04795 -32.93852,33.03668 -1.68444,0.29552 -8.83246,0.56999 -10.10823,0.38813 z m 4.51645,-9.55947 c 1.06459,-0.12035 2.85291,-0.46733 3.97405,-0.77107 3.87774,-1.05055 6.27558,-2.45332 8.78283,-5.13806 3.24185,-3.47133 4.34505,-7.66177 3.17868,-12.07404 -0.66974,-2.53356 -2.73868,-5.12314 -6.69172,-8.37564 -1.13461,-0.93354 -2.39629,-2.12523 -2.80373,-2.6482 -0.63494,-0.81497 -0.74079,-1.11634 -0.74079,-2.1091 0,-0.64567 0.15374,-1.45557 0.3474,-1.83006 0.19106,-0.36948 1.48086,-1.84059 2.86621,-3.26912 3.9185,-4.04063 4.54569,-5.42216 4.54756,-10.01719 8.7e-4,-2.05354 -0.0947,-3.17469 -0.32628,-3.83013 -0.64485,-1.82482 -1.94738,-3.99153 -3.17518,-5.28182 -0.68681,-0.72177 -1.24875,-1.33799 -1.24875,-1.36936 0,-0.0314 1.01898,-0.0571 2.26441,-0.0571 l 2.26442,0 2.1607,-1.23664 2.1607,-1.23665 -1.57546,-0.17522 c -0.8665,-0.0964 -5.10795,-0.12905 -9.42546,-0.0726 -9.47198,0.12383 -11.22987,0.3681 -14.50183,2.01514 -3.08721,1.55405 -5.42566,3.8694 -6.87648,6.80856 -1.16278,2.35562 -1.48831,3.92439 -1.36619,6.58379 0.12422,2.70522 0.56651,4.01734 2.0812,6.17418 2.67071,3.80295 5.93652,5.44222 10.84221,5.44222 l 2.34746,0 -0.18376,0.69897 c -0.10107,0.38443 -0.18575,1.52161 -0.18819,2.52706 -0.004,1.74215 0.036,1.89884 0.85585,3.33356 0.47315,0.82802 0.88785,1.56402 0.92156,1.63557 0.0337,0.0716 -1.12766,0.24774 -2.58082,0.39152 -5.8811,0.58192 -9.86135,1.82199 -13.18048,4.10645 -3.3976,2.33847 -5.47784,6.78418 -4.83714,10.3375 0.62507,3.46665 3.5353,6.64099 7.5255,8.20847 1.29573,0.509 3.74434,1.11608 5.26918,1.30637 1.39104,0.17359 5.47455,0.13038 7.31234,-0.0774 z m -3.34128,-3.31684 c -3.44119,-0.56435 -5.95044,-1.78673 -7.90066,-3.84879 -1.66904,-1.76478 -2.0506,-2.6719 -2.15797,-5.13043 -0.0861,-1.97149 -0.0548,-2.16526 0.56242,-3.48427 1.46802,-3.13709 4.39733,-4.87559 9.80093,-5.81672 1.05051,-0.18297 2.76027,-0.33267 3.79945,-0.33267 l 1.88943,0 1.59788,1.06873 c 2.16032,1.4449 4.81466,3.76953 5.67839,4.97303 0.95207,1.32659 1.45029,3.32718 1.29393,5.1958 -0.29144,3.48289 -2.94721,6.16976 -7.06633,7.1491 -2.00948,0.47776 -5.34922,0.57853 -7.49747,0.22622 z m 1.20869,-31.64078 c -2.98842,-1.09483 -5.90917,-5.21473 -7.03243,-9.91964 -0.63468,-2.65847 -0.51302,-5.8812 0.28808,-7.63103 1.48398,-3.24145 4.39957,-4.81417 7.66008,-4.13198 3.25915,0.6819 5.45756,3.20647 7.15198,8.21308 1.20249,3.5531 1.36508,7.88306 0.38182,10.1687 -0.57146,1.32841 -2.1952,2.83208 -3.56061,3.29732 -1.23591,0.42112 -3.74417,0.42294 -4.88892,0.004 z"
       style="fill:#4795f9;fill-opacity:1" />
  </g>
</svg>
