<?xml version="1.0" encoding="UTF-8" standalone="no"?>
<svg
   xmlns:dc="http://purl.org/dc/elements/1.1/"
   xmlns:cc="http://creativecommons.org/ns#"
   xmlns:rdf="http://www.w3.org/1999/02/22-rdf-syntax-ns#"
   xmlns:svg="http://www.w3.org/2000/svg"
   xmlns="http://www.w3.org/2000/svg"
   version="1.1"
   id="svg4165"
   viewBox="0 0 80 80.000001"
   height="80"
   width="80">
  <defs
     id="defs4167" />
  <metadata
     id="metadata4170">
    <rdf:RDF>
      <cc:Work
         rdf:about="">
        <dc:format>image/svg+xml</dc:format>
        <dc:type
           rdf:resource="http://purl.org/dc/dcmitype/StillImage" />
        <dc:title></dc:title>
      </cc:Work>
    </rdf:RDF>
  </metadata>
  <g
     transform="translate(0,-972.36215)"
     id="layer1">
    <path
       id="path4726"
       transform="translate(0,972.36215)"
       d="M 39.742188 12.001953 C 38.144855 12.028553 36.455462 12.305881 34.746094 12.837891 C 30.021807 14.308241 28.288232 16.134603 26.603516 21.408203 C 25.226267 25.719503 25.500311 33.054688 27.039062 33.054688 C 27.300003 33.054688 27.498047 31.928359 27.498047 30.443359 C 27.498047 29.006659 27.87805 26.536378 28.34375 24.955078 C 28.809448 23.373808 29.430213 21.203832 29.720703 20.132812 C 30.011192 19.061793 30.340126 18.277225 30.453125 18.390625 C 30.566128 18.503585 30.452486 19.142434 30.199219 19.808594 C 29.945954 20.474724 29.731456 21.662426 29.722656 22.447266 C 29.71393 23.231766 29.418503 24.376228 29.066406 24.992188 C 28.667879 25.689337 28.420056 27.423084 28.410156 29.583984 C 28.396943 32.474284 28.239512 33.209709 27.474609 33.974609 C 26.44702 35.002309 26.596615 36.090275 27.929688 37.296875 C 28.664994 37.962275 29.013264 37.996162 30.398438 37.539062 C 32.322112 36.904262 33.320312 37.468006 33.320312 39.191406 C 33.320312 39.820306 33.906487 40.879209 34.689453 41.662109 C 35.44236 42.415009 35.959848 43.284856 35.839844 43.597656 C 35.719832 43.910256 35.750459 44.295372 35.90625 44.451172 C 36.528946 45.073872 37.573611 44.407325 37.470703 43.453125 C 37.412012 42.908925 37.563173 42.462891 37.806641 42.462891 C 38.05011 42.462891 38.248047 42.966031 38.248047 43.582031 C 38.248047 44.278831 38.501841 44.703125 38.919922 44.703125 C 39.338005 44.703125 39.591797 44.278831 39.591797 43.582031 C 39.591797 42.966031 39.794644 42.462891 40.041016 42.462891 C 40.287387 42.462891 40.488281 42.981234 40.488281 43.615234 C 40.488281 44.473934 40.687608 44.727628 41.271484 44.611328 C 41.793151 44.507528 42.009276 44.122384 41.916016 43.458984 C 41.82252 42.793984 42.009503 42.462891 42.476562 42.462891 C 42.861604 42.462891 43.175781 42.831503 43.175781 43.283203 C 43.175781 44.338403 43.55184 44.701291 44.335938 44.400391 C 44.742459 44.244391 44.86995 43.791716 44.697266 43.103516 C 44.520233 42.398316 44.743838 41.647009 45.371094 40.849609 C 45.88841 40.192109 46.3125 39.393019 46.3125 39.074219 C 46.3125 37.861719 47.591972 37.164897 49.376953 37.404297 C 50.8399 37.600497 51.233466 37.469444 51.849609 36.589844 C 52.852384 35.158144 52.771548 34.369575 51.509766 33.296875 C 50.682278 32.593575 50.380642 31.793994 50.197266 29.808594 C 50.062806 28.352894 50.140123 27.232422 50.375 27.232422 C 50.603569 27.232422 50.791016 28.329522 50.791016 29.669922 C 50.791016 33.259822 52.061943 33.416222 52.820312 29.919922 C 54.14486 23.813772 50.525453 15.751958 45.289062 13.142578 C 43.696585 12.349018 41.795904 11.968253 39.742188 12.001953 z M 32.646484 26.998047 C 34.077353 27.009647 35.862494 27.368434 36.480469 27.927734 C 38.122693 29.413834 36.957921 32.310438 34.128906 33.773438 C 32.599757 34.564138 32.767119 34.596897 31.529297 33.279297 C 30.732699 32.431397 30.468079 31.621331 30.443359 29.957031 C 30.425379 28.746831 30.577568 27.588512 30.783203 27.382812 C 31.057178 27.108412 31.787962 26.984047 32.646484 26.998047 z M 2.1484375 27.1875 A 40 40 0 0 0 0.84570312 31.859375 C 3.2281429 35.908486 6.13935 39.391187 10.398438 43.328125 C 22.565266 54.574125 31.578033 59.947741 48.103516 65.806641 C 51.429526 66.985841 54.301551 67.958656 54.486328 67.972656 C 55.075025 68.012556 54.848517 65.844806 54.195312 65.191406 C 53.849613 64.845806 51.077059 63.710669 48.035156 62.667969 C 37.290164 58.984969 24.329698 51.830506 19.882812 47.128906 C 18.774142 45.956606 18.390569 45.384422 19.029297 45.857422 C 19.668025 46.330422 21.707142 47.865778 23.560547 49.267578 C 30.791391 54.736578 37.755242 58.289453 48.03125 61.751953 C 52.786358 63.354553 54.084444 63.634297 55.09375 63.279297 C 55.773864 63.040097 56.342495 62.672237 56.359375 62.460938 C 56.376249 62.249637 53.669759 61.114253 50.34375 59.939453 C 33.875868 54.123253 24.558558 48.7305 12.548828 38.0625 C 9.8573047 35.671701 5.3360398 30.875189 2.1484375 27.1875 z M 44.744141 27.232422 C 47.423241 27.232422 48.105556 27.849884 48.097656 30.271484 C 48.093885 31.433284 47.942725 32.608012 47.761719 32.882812 C 46.333348 35.050913 41.384766 32.165363 41.384766 29.164062 C 41.384766 27.928963 42.596304 27.232422 44.744141 27.232422 z M 77.875 27.294922 C 74.798061 30.911166 70.453812 35.491245 67.529297 38.066406 C 59.478784 45.155406 54.056527 48.892022 45.886719 52.982422 C 40.908947 55.474722 40.790645 55.568303 41.855469 56.158203 C 42.458869 56.492203 43.364726 56.76725 43.869141 56.78125 C 45.386653 56.80755 59.364997 47.759625 60.404297 46.078125 C 60.566796 45.815025 60.928825 45.597656 61.208984 45.597656 C 62.977964 45.597656 53.608243 52.576353 47.15625 56.064453 L 44.78125 57.347656 L 46.107422 57.933594 C 48.173019 58.844094 48.561061 58.743947 52.890625 56.185547 C 62.374828 50.581247 73.22458 40.962772 77.974609 33.951172 C 78.38925 33.339087 78.782196 32.701832 79.162109 32.058594 A 40 40 0 0 0 78.826172 30.558594 C 78.256495 31.930418 75.090931 36.065104 72.144531 39.177734 C 70.179644 41.253534 68.149421 43.175112 67.632812 43.445312 C 67.116202 43.715413 68.629991 41.931022 70.996094 39.482422 C 73.362203 37.033922 76.062388 33.87785 76.998047 32.46875 C 77.763165 31.316167 78.449914 30.438551 78.744141 30.201172 A 40 40 0 0 0 77.875 27.294922 z M 38.990234 31.041016 L 40.201172 32.957031 C 40.867415 34.011231 41.519477 35.421497 41.650391 36.091797 C 41.788407 36.798797 41.620273 37.674128 41.25 38.173828 C 40.632603 39.006828 40.583986 38.993462 39.794922 37.789062 C 39.032969 36.626363 38.940137 36.59755 38.394531 37.34375 C 38.073135 37.78395 37.682754 38.014675 37.527344 37.859375 C 37.151403 37.483275 37.707609 34.069666 38.419922 32.384766 L 38.990234 31.041016 z M 48.816406 38.431641 C 47.985088 38.431641 46.3125 41.926762 46.3125 43.664062 C 46.3125 44.415362 45.872582 45.587431 45.335938 46.269531 L 44.361328 47.511719 L 43.992188 46.517578 C 43.546547 45.312778 42.558796 45.523234 42.361328 46.865234 C 42.181526 48.087334 41.384766 48.149206 41.384766 46.941406 C 41.384766 46.327806 41.087007 46.046875 40.4375 46.046875 C 39.709944 46.046875 39.542867 46.254006 39.722656 46.941406 C 39.869072 47.501406 39.73665 47.837891 39.369141 47.837891 C 39.001612 47.837891 38.869209 47.501406 39.015625 46.941406 C 39.195413 46.254006 39.028384 46.046875 38.300781 46.046875 C 37.651277 46.046875 37.353516 46.327806 37.353516 46.941406 C 37.353516 47.434206 37.150668 47.837891 36.904297 47.837891 C 36.657926 47.837891 36.457031 47.319547 36.457031 46.685547 C 36.457031 45.825447 36.257095 45.572759 35.671875 45.693359 C 35.220769 45.786059 34.945744 46.181347 35.021484 46.623047 C 35.093878 47.045347 34.972893 47.390625 34.753906 47.390625 C 33.918631 47.390625 32.997891 45.727519 32.46875 43.261719 C 31.816269 40.221019 30.545395 38.363425 29.691406 39.203125 C 29.258404 39.628825 29.251866 40.008297 29.660156 40.904297 C 29.949119 41.538497 30.185547 43.1003 30.185547 44.375 C 30.185547 46.5946 30.294737 46.80195 32.748047 49.28125 L 35.308594 51.869141 L 39.339844 51.869141 L 43.371094 51.869141 L 45.738281 49.533203 C 47.39995 47.892303 48.103516 46.847484 48.103516 46.021484 C 48.103516 45.374684 48.404593 43.855884 48.771484 42.646484 C 49.614688 39.866884 49.630068 38.431641 48.816406 38.431641 z M 16.099609 57.320312 C 15.964405 57.320312 15.828392 57.319984 15.691406 57.333984 C 14.235041 57.441184 13.724386 57.719772 13.177734 58.701172 C 12.561572 59.807772 12.560748 60.057462 13.177734 61.164062 C 14.011619 62.659562 15.679507 63.009447 16.560547 61.873047 C 17.173662 61.082047 17.221022 61.084919 17.912109 61.949219 C 19.008572 63.320319 20.235651 66.363741 21.181641 70.056641 C 22.145345 73.818341 23.06168 75.475287 24.5 76.054688 C 25.957656 76.641888 26.739291 76.583494 27.845703 75.808594 C 28.955739 75.030994 29.226716 72.589869 28.304688 71.667969 C 27.530835 70.894069 26.296778 71.007613 25.960938 71.882812 C 25.693163 72.581412 25.620759 72.581784 24.935547 71.896484 C 24.037502 70.998484 23.55352 65.936713 24.294922 65.195312 C 24.654028 64.836112 24.429838 64.486397 23.472656 63.904297 C 22.749472 63.464497 21.755545 62.315662 21.263672 61.351562 C 19.946626 58.769963 18.127667 57.356266 16.099609 57.322266 L 16.099609 57.320312 z M 63.533203 57.322266 L 63.533203 57.326172 C 61.509507 57.359772 59.686894 58.768125 58.380859 61.328125 C 57.895752 62.278925 56.992107 63.389322 56.373047 63.794922 C 55.522448 64.352222 55.324238 64.765322 55.556641 65.482422 C 56.055346 67.021222 55.725116 70.376275 54.960938 71.546875 C 54.315426 72.535775 54.204397 72.567466 53.705078 71.884766 C 52.885339 70.763766 51.724078 70.977356 51.203125 72.347656 C 50.586507 73.969356 51.040483 75.561334 52.259766 76.052734 L 52.261719 76.052734 C 53.931405 76.724334 54.751101 76.561344 56.164062 75.277344 C 57.227309 74.311244 57.74655 73.175472 58.570312 70.013672 C 59.71641 65.614372 60.605255 63.334772 61.716797 61.951172 C 62.411102 61.086972 62.461095 61.0841 63.074219 61.875 C 63.95526 63.0113 65.621192 62.663569 66.455078 61.167969 C 67.072254 60.061569 67.071429 59.809625 66.455078 58.703125 C 65.908426 57.721725 65.397772 57.445591 63.941406 57.337891 C 63.804802 57.323891 63.668121 57.322266 63.533203 57.322266 z M 31.201172 59.669922 C 30.440853 59.674222 29.422378 59.958394 27.410156 60.621094 C 22.754621 62.153994 22.708941 62.180809 23.708984 62.912109 C 24.162952 63.243909 24.848361 63.521484 25.232422 63.521484 C 26.334928 63.530584 33.769531 61.1713 33.769531 60.8125 C 33.769531 60.6349 33.175409 60.244259 32.449219 59.943359 C 32.020591 59.766359 31.657363 59.669922 31.201172 59.669922 z M 35.564453 61.59375 C 34.749924 61.55445 33.671941 61.922866 30.908203 62.884766 C 25.923083 64.619966 24.810547 65.367387 24.810547 66.992188 C 24.810547 67.677287 25.019943 68.016531 25.369141 67.894531 C 25.677105 67.786231 28.801713 66.718784 32.3125 65.521484 C 35.823288 64.324284 38.697266 63.223872 38.697266 63.076172 C 38.697266 62.928272 37.956969 62.4724 37.052734 62.0625 C 36.447006 61.788 36.053171 61.61775 35.564453 61.59375 z M 14.253906 63.917969 C 13.558515 63.879669 13.210588 64.478725 13.652344 65.640625 C 13.889886 66.265325 13.974203 66.886584 13.839844 67.021484 C 13.705484 67.155884 13.352972 66.622991 13.056641 65.837891 C 12.519368 64.414491 11.337652 63.655847 10.480469 64.185547 C 9.9011462 64.543643 9.8600075 65.577302 10.216797 66.628906 A 40 40 0 0 0 13.232422 69.664062 C 13.66163 69.757836 14.174742 69.787109 14.865234 69.787109 C 18.68488 69.787109 19.882812 69.386669 19.882812 68.105469 C 19.882813 66.699369 18.232021 63.964844 17.382812 63.964844 C 16.710158 63.964844 16.515936 65.282166 17.082031 66.009766 C 17.266808 66.247266 16.914755 65.882419 16.298828 65.199219 C 15.545733 64.363919 14.794759 63.947969 14.253906 63.917969 z M 65.345703 63.960938 C 64.726856 63.991737 63.961703 64.4356 63.414062 65.1875 L 62.523438 66.410156 L 62.757812 65.1875 C 62.928476 64.2946 62.809395 63.964844 62.318359 63.964844 C 61.430671 63.964844 60.190782 65.903825 59.888672 67.765625 C 59.694451 68.962325 59.810724 69.29605 60.482422 69.46875 C 62.004107 69.85945 65.944188 69.794775 67.089844 69.359375 C 67.106231 69.353145 67.12234 69.342661 67.138672 69.335938 A 40 40 0 0 0 68.849609 67.642578 C 69.627979 66.312755 69.928601 64.664033 69.154297 64.185547 C 68.498929 63.780547 66.917969 64.377097 66.917969 65.029297 C 66.917969 65.335097 66.613182 65.976778 66.242188 66.455078 C 65.613602 67.265378 65.598631 67.237588 66.021484 66.054688 C 66.271056 65.356487 66.362139 64.6008 66.222656 64.375 C 66.036001 64.0732 65.717012 63.941937 65.345703 63.960938 z M 71.570312 64.484375 C 70.752079 64.822491 70.227104 65.515032 70.097656 66.300781 A 40 40 0 0 0 71.570312 64.484375 z "
       style="opacity:1;fill:#333333;fill-opacity:1;fill-rule:nonzero;stroke:none;stroke-width:1;stroke-linecap:round;stroke-miterlimit:4;stroke-dasharray:4, 1;stroke-dashoffset:0;stroke-opacity:1" />
    <path
       id="path4726-0-2"
       transform="translate(0,972.36215)"
       d="M 40 0 C 17.90855 -9e-05 -0.00011999995 17.90851 0 40 C -7.9999952e-05 62.0913 17.90858 80.0001 40 80 C 62.09142 80.0001 80.00008 62.0913 80 40 C 80.00011 17.90852 62.09144 -8e-05 40 0 z M 40 5.8925781 A 34.107143 34.107143 0 0 1 74.107422 40 A 34.107143 34.107143 0 0 1 40 74.107422 A 34.107143 34.107143 0 0 1 5.8925781 40 A 34.107143 34.107143 0 0 1 40 5.8925781 z "
       style="opacity:1;fill:#333333;fill-opacity:1;fill-rule:nonzero;stroke:none;stroke-width:1;stroke-linecap:round;stroke-miterlimit:4;stroke-dasharray:4, 1;stroke-dashoffset:0;stroke-opacity:1" />
  </g>
</svg>
