<?xml version="1.0" encoding="UTF-8" standalone="no"?>
<svg
   xmlns:dc="http://purl.org/dc/elements/1.1/"
   xmlns:cc="http://creativecommons.org/ns#"
   xmlns:rdf="http://www.w3.org/1999/02/22-rdf-syntax-ns#"
   xmlns:svg="http://www.w3.org/2000/svg"
   xmlns="http://www.w3.org/2000/svg"
   xmlns:xlink="http://www.w3.org/1999/xlink"
   version="1.1"
   id="svg2"
   viewBox="0 0 80.000001 80.000001"
   height="80"
   width="80">
  <defs
     id="defs4">
    <linearGradient
       id="linearGradient4177">
      <stop
         id="stop4179"
         offset="0"
         style="stop-color:#ffffff;stop-opacity:1" />
      <stop
         id="stop4181"
         offset="1"
         style="stop-color:#ffd016;stop-opacity:1" />
    </linearGradient>
    <clipPath
       id="clipPath8089"
       clipPathUnits="userSpaceOnUse">
      <circle
         r="39.999989"
         cy="1012.3622"
         cx="39.999989"
         id="circle8091"
         style="opacity:1;fill:#000000;fill-opacity:1;fill-rule:nonzero;stroke:none;stroke-width:1;stroke-linecap:round;stroke-miterlimit:4;stroke-dasharray:4, 1;stroke-dashoffset:0;stroke-opacity:1" />
    </clipPath>
    <clipPath
       id="clipPath8089-1"
       clipPathUnits="userSpaceOnUse">
      <circle
         r="39.999989"
         cy="1012.3622"
         cx="39.999989"
         id="circle8091-1"
         style="opacity:1;fill:#000000;fill-opacity:1;fill-rule:nonzero;stroke:none;stroke-width:1;stroke-linecap:round;stroke-miterlimit:4;stroke-dasharray:4, 1;stroke-dashoffset:0;stroke-opacity:1" />
    </clipPath>
    <radialGradient
       gradientUnits="userSpaceOnUse"
       gradientTransform="matrix(1,-2.6224548e-8,2.7431475e-8,0.99999388,-125.91759,-977.50593)"
       r="39.999989"
       fy="1017.5119"
       fx="165.91756"
       cy="1017.5119"
       cx="165.91756"
       id="radialGradient4187"
       xlink:href="#linearGradient4177" />
  </defs>
  <metadata
     id="metadata7">
    <rdf:RDF>
      <cc:Work
         rdf:about="">
        <dc:format>image/svg+xml</dc:format>
        <dc:type
           rdf:resource="http://purl.org/dc/dcmitype/StillImage" />
        <dc:title></dc:title>
      </cc:Work>
    </rdf:RDF>
  </metadata>
  <g
     transform="translate(0,-972.36216)"
     id="layer1">
    <g
       transform="translate(-125.91757,-5.14974)"
       id="g4157">
      <path
         id="path4169"
         transform="translate(125.91757,977.5119)"
         d="M 40 0 A 40 40 0 0 0 0 40 A 40 40 0 0 0 40 80 A 40 40 0 0 0 80 40 A 40 40 0 0 0 40 0 z M 47.425781 22.511719 C 48.28957 22.485424 49.363413 22.569672 49.960938 22.732422 C 50.819957 22.966322 51.577807 23.292941 52.310547 23.744141 C 52.918327 24.118441 53.709684 24.753406 53.646484 24.816406 C 53.628834 24.834006 53.307381 24.759291 52.931641 24.650391 C 52.115571 24.414191 50.898088 24.381419 50.080078 24.574219 C 49.003308 24.828019 47.903764 25.532394 47.177734 26.433594 C 46.360624 27.447894 45.987821 28.51615 45.988281 29.84375 C 45.988851 31.40195 46.479556 32.587528 47.572266 33.673828 C 48.689036 34.784028 49.784391 35.234375 51.369141 35.234375 C 52.365441 35.234375 52.903024 35.118303 53.746094 34.720703 C 54.426364 34.399803 54.882659 34.058619 55.443359 33.449219 C 55.665729 33.207619 55.865419 33.025875 55.886719 33.046875 C 55.954559 33.114775 55.558806 34.142713 55.228516 34.757812 C 53.982576 37.077913 51.760558 38.620338 49.085938 39.023438 C 47.842018 39.210938 46.945243 39.149109 45.664062 38.787109 C 42.786212 37.974109 40.657744 35.789384 39.865234 32.833984 C 39.684594 32.160184 39.660156 31.922812 39.660156 30.820312 C 39.660156 29.724013 39.685218 29.478266 39.861328 28.822266 C 40.144668 27.766766 40.480854 27.001375 41.027344 26.171875 C 42.284884 24.262975 44.347983 22.946272 46.658203 22.576172 C 46.874046 22.541592 47.137852 22.520484 47.425781 22.511719 z "
         style="fill:url(#radialGradient4187);fill-opacity:1" />
      <path
         id="path4175"
         transform="translate(125.91757,977.5119)"
         d="M 62.287109 23.736328 L 62.908203 42.611328 L 79.886719 37.056641 A 40 40 0 0 0 77.279297 25.501953 L 62.287109 23.736328 z "
         style="fill:#ffcc00;fill-opacity:1;fill-rule:evenodd;stroke:none;stroke-width:1px;stroke-linecap:butt;stroke-linejoin:miter;stroke-opacity:1" />
      <path
         id="path4161"
         transform="translate(125.91757,977.5119)"
         d="M 44.699219 12.572266 C 42.740217 12.564091 40.604371 12.762296 38.916016 13.126953 C 34.377716 14.107163 29.964503 16.421872 26.039062 19.882812 C 25.531622 20.330203 25.062041 20.697219 24.994141 20.699219 C 24.926271 20.700939 24.082521 20.366708 23.119141 19.955078 C 18.676023 18.05662 13.778759 16.233036 9.078125 14.662109 A 40 40 0 0 0 0 40 A 40 40 0 0 0 7.2636719 62.902344 C 11.825322 59.328251 17.564536 55.787237 24.904297 52.021484 L 26.488281 51.208984 L 27.091797 51.544922 C 28.229037 52.180022 30.820607 53.418919 31.992188 53.886719 C 34.983027 55.081019 37.784959 55.800419 40.755859 56.136719 C 42.308329 56.316019 45.194867 56.314319 46.679688 56.136719 C 54.108197 55.248419 60.668885 51.761075 67.421875 45.109375 L 69.257812 43.300781 L 70.234375 42.984375 C 72.504565 42.249275 75.565154 41.434656 78.496094 40.785156 C 79.280034 40.611556 79.939237 40.46875 79.960938 40.46875 C 79.973045 40.46875 79.975157 39.88682 79.982422 39.509766 A 40 40 0 0 0 79.884766 37.048828 C 79.66045 37.073572 75.719964 37.895543 74.296875 38.214844 C 72.265565 38.670544 68.210214 39.671353 66.302734 40.189453 C 65.028084 40.536153 64.6875 40.602447 64.6875 40.498047 C 64.6875 40.470447 64.756797 40.213134 64.841797 39.927734 C 65.058137 39.201334 65.27482 38.104762 65.4375 36.914062 C 65.63105 35.497363 65.63072 32.319837 65.4375 30.898438 C 65.15502 28.820437 64.673611 27.008338 64.025391 25.585938 C 63.872411 25.250138 63.764203 24.960406 63.783203 24.941406 C 63.802263 24.922306 64.548769 24.979359 65.443359 25.068359 C 68.659418 25.387676 71.636297 25.539045 77.355469 25.726562 A 40 40 0 0 0 75.464844 21.535156 C 74.779298 21.480808 74.056122 21.43444 73.710938 21.402344 C 70.416318 21.095984 65.225842 20.361561 64.820312 20.144531 C 64.738523 20.100751 64.385496 19.843859 64.035156 19.574219 C 61.215256 17.403889 57.092469 15.259664 53.417969 14.052734 C 51.345869 13.372134 48.701602 12.829781 46.576172 12.650391 C 45.985232 12.600516 45.352219 12.57499 44.699219 12.572266 z M 47.984375 22.478516 C 49.143572 22.485639 50.308694 22.732572 51.392578 23.244141 C 52.258568 23.652841 53.06036 24.175119 53.4375 24.574219 C 53.75085 24.906119 53.792105 24.904322 52.734375 24.607422 C 51.897705 24.372622 50.528787 24.417784 49.679688 24.708984 C 48.852947 24.992484 48.192468 25.400459 47.580078 26.005859 C 45.141138 28.416959 45.535967 32.450634 48.398438 34.365234 C 49.245177 34.931534 49.990889 35.164891 51.105469 35.212891 C 52.891589 35.290191 54.107824 34.803434 55.402344 33.490234 C 55.900254 32.985134 55.948691 32.952762 55.900391 33.164062 C 55.870891 33.292963 55.749186 33.644513 55.628906 33.945312 C 54.547206 36.650412 52.083425 38.580444 49.140625 39.027344 C 46.428865 39.439144 43.750331 38.503509 41.832031 36.474609 C 40.890591 35.478909 40.219914 34.233378 39.833984 32.767578 C 39.675054 32.163878 39.65125 31.89635 39.65625 30.78125 C 39.66121 29.64205 39.684841 29.401691 39.869141 28.712891 C 40.133181 27.726091 40.717265 26.525444 41.328125 25.714844 C 42.909464 23.61625 45.434141 22.462844 47.984375 22.478516 z "
         style="fill:#3264fc" />
      <path
         id="path4159"
         transform="translate(125.91757,977.5119)"
         d="M 44.699219 12.572266 C 42.740217 12.564091 40.604371 12.762296 38.916016 13.126953 C 34.377716 14.107163 29.964503 16.421872 26.039062 19.882812 C 25.531622 20.330203 25.062041 20.697219 24.994141 20.699219 C 24.926271 20.700939 24.082521 20.366708 23.119141 19.955078 C 18.675688 18.056471 13.778917 16.233061 9.078125 14.662109 A 40 40 0 0 0 6.5683594 18.095703 C 11.969882 19.57262 17.930525 21.438915 23.222656 23.324219 C 24.604076 23.816319 25.790422 24.21875 25.857422 24.21875 C 25.924382 24.21875 26.435541 23.876031 26.994141 23.457031 C 32.326121 19.458111 37.383519 17.301443 42.630859 16.789062 C 43.937889 16.661442 46.718844 16.739386 48.027344 16.941406 C 52.871614 17.689316 57.637899 19.960888 62.287109 23.736328 C 62.798949 24.151928 63.329074 24.584766 63.464844 24.697266 C 63.697134 24.889566 63.812467 24.911259 65.429688 25.068359 C 68.616268 25.378059 71.69038 25.561225 76.09375 25.703125 C 76.663387 25.721329 76.860556 25.727727 77.361328 25.744141 A 40 40 0 0 0 75.464844 21.535156 C 74.779298 21.480808 74.056122 21.43444 73.710938 21.402344 C 70.416318 21.095984 65.225842 20.361561 64.820312 20.144531 C 64.738523 20.100751 64.385496 19.843859 64.035156 19.574219 C 61.215256 17.403889 57.092469 15.259664 53.417969 14.052734 C 51.345869 13.372134 48.701602 12.829781 46.576172 12.650391 C 45.985232 12.600516 45.352219 12.57499 44.699219 12.572266 z M 47.902344 19.6875 C 44.950724 19.68844 42.275049 20.783027 40.193359 22.841797 C 39.753689 23.276597 39.184194 23.918378 38.927734 24.267578 C 38.044374 25.469978 37.355071 27.042487 37.019531 28.617188 C 36.795651 29.667788 36.775126 31.716937 36.978516 32.773438 C 37.407456 35.001837 38.415322 36.9648 39.919922 38.5 C 41.887452 40.5076 44.122401 41.587847 46.894531 41.873047 C 48.151241 42.002347 49.742696 41.843366 51.134766 41.447266 C 52.077186 41.179166 53.715836 40.354328 54.535156 39.736328 C 55.915376 38.695328 57.351594 36.951409 57.996094 35.537109 C 58.361484 34.735309 58.724353 33.582591 58.882812 32.712891 C 59.065602 31.709691 59.059304 29.812525 58.871094 28.828125 C 57.848824 23.481325 53.294524 19.6855 47.902344 19.6875 z M 48.037109 22.429688 C 49.66617 22.46706 51.355164 23.009587 52.753906 23.976562 C 53.391836 24.417563 53.922794 24.921875 53.746094 24.921875 C 53.683954 24.921275 53.351562 24.82885 53.007812 24.71875 C 50.232712 23.83015 47.250487 25.357962 46.279297 28.164062 C 46.087307 28.718762 46.061594 28.903288 46.058594 29.804688 C 46.055504 30.655687 46.083688 30.91525 46.236328 31.40625 C 46.514878 32.30235 46.902545 32.933272 47.609375 33.638672 C 48.314925 34.342772 48.806132 34.650503 49.726562 34.970703 C 50.287603 35.165403 50.455498 35.1875 51.367188 35.1875 C 52.255447 35.186 52.461193 35.158463 53.007812 34.976562 C 53.919023 34.673463 54.563115 34.265591 55.296875 33.525391 C 55.653365 33.165691 55.962775 32.890109 55.984375 32.912109 C 56.046295 32.974009 55.720753 33.889625 55.414062 34.515625 C 54.855442 35.655825 54.020727 36.679244 53.060547 37.402344 C 51.968377 38.224744 50.690282 38.792731 49.419922 39.019531 C 48.084572 39.258031 47.127425 39.225537 45.859375 38.898438 C 42.415995 38.010138 40.007406 35.206487 39.603516 31.617188 C 39.432236 30.095087 39.740646 28.525588 40.509766 26.992188 C 41.688626 24.641888 43.758506 23.097053 46.441406 22.564453 C 46.957824 22.461951 47.494089 22.41723 48.037109 22.429688 z M 79.884766 37.048828 C 79.798905 37.063067 79.018849 37.218324 77.996094 37.425781 C 74.985954 38.036381 72.815597 38.534516 69.335938 39.416016 C 64.760357 40.575016 64.820067 40.560578 64.648438 40.642578 C 64.562498 40.683878 64.263665 41.001609 63.984375 41.349609 C 59.999005 46.314409 54.528192 49.594434 48.320312 50.740234 C 46.362073 51.101534 45.189515 51.199219 42.890625 51.199219 C 39.265035 51.195819 36.162483 50.737484 32.382812 49.646484 C 31.298433 49.333584 30.708235 49.134441 28.046875 48.181641 C 26.880215 47.763841 26.102452 47.620594 25.351562 47.683594 C 24.142133 47.785794 22.58019 48.417356 20.3125 49.722656 C 19.68903 50.081456 17.581203 51.245394 15.626953 52.308594 C 10.48232 55.107388 7.3384167 56.938635 4.6738281 58.707031 A 40 40 0 0 0 7.2636719 62.902344 C 11.825322 59.328251 17.564536 55.787237 24.904297 52.021484 L 26.488281 51.208984 L 27.091797 51.544922 C 28.229037 52.180022 30.820607 53.418919 31.992188 53.886719 C 34.983027 55.081019 37.784959 55.800419 40.755859 56.136719 C 42.308329 56.316019 45.194867 56.314319 46.679688 56.136719 C 54.108197 55.248419 60.668885 51.759122 67.421875 45.107422 L 69.257812 43.298828 L 70.234375 42.984375 C 72.504565 42.249275 75.565154 41.434656 78.496094 40.785156 C 79.280034 40.611556 79.939237 40.46875 79.960938 40.46875 C 79.973045 40.46875 79.975157 39.88682 79.982422 39.509766 A 40 40 0 0 0 79.884766 37.048828 z "
         style="fill:#060605" />
    </g>
  </g>
</svg>
